# xmcd CD database file
#
# Track frame offsets:
#	182
#	7247
#	23585
#	39890
#	55802
#	72912
#	90515
#	110837
#	128887
#	150430
#	164225
#	185622
#	191990
#	216262
#	237027
#	258237
#	277462
#	301397
#	320157
#	334510
#
# Disc length: 4577 seconds
#
# Revision: 2
# Processed by: cddbd v1.5.2PL0 Copyright (c) Steve Scherf et al.
# Submitted via: CDex 1.51
#
DISCID=2911df14
DTITLE=Various Artist - Collectif Rap
DYEAR=1998
DGENRE=Rap
TTITLE0=Intro: Dee Nasty
TTITLE1=Passi - Je zappe et je mate
TTITLE2=KDD - Ma cause
TTITLE3=Fonky Family - La furie et la foi
TTITLE4=Rocca - La fama--Larenommee (remix 1)
TTITLE5=Stomy Bugsy - Mon papa a moi est un gangster (remix)
TTITLE6=La Cliqua - Dans ma tete
TTITLE7=East feat. Daddy Lord C. and Kohndo - On se retrouvera
TTITLE8=Minister Amer - Le savoir
TTITLE9=Tout Simplement Noir - Club TSN
TTITLE10=Cut Killer feat. Fabe Koma K Reen - Mal partis
TTITLE11=Interlude: Dee Nasty
TTITLE12=Big Brother Akim and Dee Nasty - Je pars
TTITLE13=X. Men - J'attaque du mike
TTITLE14=La Releve feat The Roots - La violence (remix)
TTITLE15=Mafia Trece - Le mauvais chemin
TTITLE16=Papifredo - Des sapes plus reuch'
TTITLE17=2 Bal 2 Neg' - La magie du tiroir
TTITLE18=3 and Dynamix - Represent in Paris
TTITLE19=Outro: Dee Nasty
EXTD=YEAR: 1998
EXTT0=
EXTT1=
EXTT2=
EXTT3=
EXTT4=
EXTT5=
EXTT6=
EXTT7=
EXTT8=
EXTT9=
EXTT10=
EXTT11=
EXTT12=
EXTT13=
EXTT14=
EXTT15=
EXTT16=
EXTT17=
EXTT18=
EXTT19=
PLAYORDER=
